<?xml version="1.0" encoding="UTF-8" standalone="no"?>
<!-- Created with Inkscape (http://www.inkscape.org/) -->

<svg
   width="100mm"
   height="70mm"
   viewBox="0 0 100 70"
   version="1.1"
   id="Logo"
   inkscape:version="1.1.2 (0a00cf5339, 2022-02-04)"
   sodipodi:docname="Logo.svg"
   xmlns:inkscape="http://www.inkscape.org/namespaces/inkscape"
   xmlns:sodipodi="http://sodipodi.sourceforge.net/DTD/sodipodi-0.dtd"
   xmlns="http://www.w3.org/2000/svg"
   xmlns:svg="http://www.w3.org/2000/svg">
  <sodipodi:namedview
     id="namedview7"
     pagecolor="#ffffff"
     bordercolor="#666666"
     borderopacity="1.0"
     inkscape:pageshadow="2"
     inkscape:pageopacity="0.0"
     inkscape:pagecheckerboard="0"
     inkscape:document-units="mm"
     showgrid="false"
     inkscape:snap-global="false"
     inkscape:zoom="0.88728955"
     inkscape:cx="279.5029"
     inkscape:cy="385.44351"
     inkscape:window-width="1920"
     inkscape:window-height="1008"
     inkscape:window-x="0"
     inkscape:window-y="0"
     inkscape:window-maximized="1"
     inkscape:current-layer="layer1" />
  <defs
     id="defs1413" />
  <g
     inkscape:label="Layer 1"
     inkscape:groupmode="layer"
     id="layer1">
    <path
       style="fill:#224433;stroke:none;stroke-width:0;stroke-miterlimit:4;stroke-dasharray:none;fill-opacity:1"
       d="M 13.034863,0.99993896 C 11.250675,1.0005422 10.12601,1.1384563 8.69611,1.4939656 5.802591,2.2133656 3.6069682,3.7346434 2.3983032,5.8575236 1.3958202,7.6182634 0.50600411,10.501128 0.1751831,13.059668 c -0.22772799,1.76137 -0.23439063,4.927527 -0.0139526,6.811987 0.66964098,5.72459 2.9856895,11.412313 6.3903076,15.694134 1.001727,1.259829 3.3260087,3.502625 4.4860309,4.328416 2.916688,2.07635 5.263357,3.014911 7.129797,2.852023 0.898283,-0.07839 1.589001,-0.279863 3.076298,-0.897104 1.312446,-0.54469 2.364783,-0.746207 3.894336,-0.746207 1.987787,0 3.579848,0.42268 5.193997,1.37976 0.858808,0.50923 2.501426,2.02442 3.103171,2.862358 l 0.379304,0.52865 -0.721918,-0.582393 c -0.848286,-0.684191 -1.713942,-1.132615 -2.350762,-1.218014 l -0.455785,-0.06098 0.565857,1.681036 c 1.140637,3.389018 2.161206,7.10579 2.803961,10.213329 0.310198,1.499762 1.030946,6.292371 1.030946,6.854362 0,0.158041 -0.114929,0.285022 -0.343648,0.379822 -0.189021,0.07828 -0.495419,0.325904 -0.681096,0.550355 -0.362593,0.438388 -0.895236,1.94015 -0.898136,2.53266 -9.66e-4,0.198782 -0.04774,0.434917 -0.104386,0.524516 -0.192842,0.304781 0.16742,0.743405 0.869198,1.058333 1.5562,0.698381 4.852083,1.143037 9.746692,1.315167 3.246594,0.11408 15.538921,0.04169 17.176213,-0.101288 3.267019,-0.285348 5.232818,-0.669726 6.246129,-1.220597 0.30288,-0.164639 0.565079,-0.396253 0.597379,-0.528132 0.104881,-0.42799 -0.268726,-2.121384 -0.629936,-2.855124 -0.341428,-0.69356 -0.953502,-1.277956 -1.337902,-1.277956 -0.1152,0 -0.139285,-0.09289 -0.08888,-0.345199 0.03793,-0.18963 0.199742,-1.3208 0.35915,-2.51406 0.615591,-4.608058 1.894647,-9.862606 3.662826,-15.045076 0.189521,-0.555498 0.344683,-1.058228 0.344683,-1.116727 0,-0.181859 -0.807445,0.01296 -1.522904,0.367419 -0.374441,0.185491 -0.959263,0.581186 -1.299663,0.879017 -0.587089,0.513681 -0.604896,0.520917 -0.344165,0.145727 1.289281,-1.855359 3.191587,-3.277393 5.313887,-3.972885 0.923401,-0.302549 1.286608,-0.359376 2.598809,-0.406175 1.748779,-0.0622 2.937568,0.111471 4.088638,0.596863 3.063732,1.291989 4.445706,1.359842 6.780466,0.333311 2.91624,-1.2822 5.875382,-3.620251 8.149373,-6.438881 C 99.682327,27.797264 101.79661,15.908151 98.365059,7.5297718 97.735938,5.9937819 97.070159,4.9418804 96.161058,4.0467804 94.827318,2.7335904 93.015332,1.8571851 90.485952,1.3022451 89.445531,1.0739051 89.017756,1.047317 86.385945,1.047997 83.922235,1.048587 83.168792,1.090032 81.719563,1.3043121 77.754893,1.8904621 74.630992,2.662958 68.474892,4.5805979 66.890014,5.0742779 65.35878,5.5122651 65.072001,5.553665 63.45559,5.7866452 60.936566,4.7274742 58.767475,2.9026641 L 57.93135,2.1988312 57.99801,2.6122426 c 0.316439,1.9500199 3.162718,4.5051565 8.386567,7.5292564 4.23042,2.44898 7.911668,5.141973 10.344589,7.568013 2.603431,2.59604 3.977071,4.745984 4.803841,7.518404 0.406569,1.36325 0.450815,2.926271 0.09663,3.406511 -0.12989,0.176141 -0.377307,0.38989 -0.549836,0.47439 -0.342472,0.16778 -0.449906,0.147201 -2.603977,-0.498679 -0.88951,-0.2667 -1.225412,-0.30666 -2.677871,-0.31936 -0.91339,-0.0076 -1.625016,-0.04918 -1.581817,-0.09199 0.04326,-0.04283 0.485151,-0.279781 0.982369,-0.526582 0.94601,-0.469529 1.948693,-0.807701 2.393653,-0.807701 0.144151,0 0.261999,-0.05107 0.261999,-0.113173 0,-0.185661 -1.557478,-0.126847 -2.657719,0.100253 -2.484059,0.51272 -4.88701,1.962034 -7.609871,4.589383 -2.89578,2.794201 -5.696551,6.578627 -9.512081,12.853995 -1.523894,2.506311 -2.034378,3.176207 -2.938838,3.856096 -0.418584,0.314659 -0.845235,0.556511 -1.29191,0.730705 -0.06373,0.297987 -3.492367,16.382214 -1.066601,16.333369 0.487836,-0.01052 0.772517,-0.628118 1.724959,-0.71882 0.952439,-0.09065 1.15753,0.793081 1.13688,1.464512 -0.02064,0.67143 -1.74448,2.056479 -2.799313,2.357479 -1.05483,0.30099 -1.971884,0.235485 -3.19877,-1.698603 C 48.257318,64.438568 46.695514,50.283119 46.561495,49.051262 46.328892,48.979892 46.091899,48.876912 45.776529,48.721051 44.380897,48.03128 43.625784,47.160089 41.760236,44.086707 37.128792,36.456738 33.786433,32.257303 30.127872,29.471063 27.67188,27.600642 25.199303,26.638162 22.849247,26.638162 c -0.988991,0 -0.987723,0.103624 0.0041,0.305924 0.383214,0.07818 1.120282,0.345522 1.637626,0.593762 1.527394,0.732989 1.533543,0.753031 0.229444,0.700733 -1.327751,-0.05334 -2.48853,0.112641 -3.819922,0.545703 -1.401107,0.45575 -1.619708,0.487746 -2.059823,0.303856 -1.029841,-0.4303 -1.014292,-2.419504 0.03927,-5.122684 0.85124,-2.18408 2.085841,-3.950452 4.335136,-6.201172 2.426679,-2.42823 5.201331,-4.52587 8.89248,-6.72207 4.451551,-2.6486396 5.528191,-3.3611193 7.190777,-4.7593994 1.417915,-1.19249 2.500759,-2.6617443 2.682007,-3.6390544 l 0.0801,-0.4325317 -0.911055,0.7358724 C 39.182365,4.5351969 37.511931,5.3622741 35.873261,5.560384 35.078426,5.6564741 34.475388,5.5168847 31.015162,4.4343547 23.31043,2.0239446 19.043886,1.1478895 14.387235,1.0206095 13.893397,1.0071095 13.446599,0.99979976 13.034863,0.99993896 Z M 35.786446,64.54903 c 0.823656,0.01833 1.675222,0.503261 2.001946,1.319816 0.198165,0.495292 0.281278,1.640675 0.135908,1.875856 h -5.18e-4 c -0.13784,0.222919 -2.007955,0.160626 -3.095935,-0.103355 l -0.932241,-0.22634 10e-4,-0.584462 c 8.71e-4,-0.808 0.190511,-1.414208 0.557073,-1.78077 0.354618,-0.354616 0.838541,-0.511741 1.332735,-0.500745 z m 28.395165,0.127124 c 1.204539,-0.01705 1.863968,0.715513 1.863968,2.072743 v 0.729155 l -0.677995,0.21704 v -5.16e-4 c -0.424328,0.135769 -1.15267,0.238602 -1.94665,0.2744 l -1.268656,0.05736 -0.122473,-0.322461 c -0.145741,-0.38336 -0.04271,-1.310772 0.199988,-1.796272 0.41298,-0.826119 1.035007,-1.21875 1.951818,-1.231449 z M 40.419236,65.11437 c 0.24573,-0.0046 0.505016,0.03129 0.76998,0.110072 0.938623,0.279069 1.421194,0.959956 1.578198,2.226736 0.07025,0.566812 0.05407,0.652722 -0.143659,0.758611 -0.225533,0.12083 -1.860685,0.261884 -2.173512,0.187587 -0.09323,-0.02215 -0.538483,-0.100235 -0.989087,-0.173633 l -0.81907,-0.133326 V 67.30597 c 0,-0.431433 0.06923,-0.950529 0.153995,-1.15342 0.271669,-0.650137 0.885976,-1.024506 1.623155,-1.03818 z m 19.073773,0.09715 c 0.165878,0.0028 0.335627,0.02328 0.507979,0.06201 0.928179,0.20856 1.404051,1.01985 1.333251,2.272731 l -0.03514,0.621149 -0.553972,0.136943 v -5.16e-4 c -1.12137,0.277109 -2.985312,0.269002 -3.4432,-0.01447 -0.191439,-0.11852 -0.098,-1.11479 0.16278,-1.73891 0.358502,-0.858036 1.132559,-1.353921 2.028301,-1.338937 z"
       id="Outer" />
    <path
       d="m 48.84976,38.74857 -0.290635,-0.703452 -0.484644,0.432764 c -0.502823,0.44901 -0.928883,0.547881 -1.178009,0.273361 -0.07957,-0.08772 -0.214994,-0.438035 -0.300956,-0.778573 -0.205513,-0.814194 0.009,-1.938093 0.612017,-3.2066 l 0.446033,-0.938253 -1.041523,0.926851 c -0.572838,0.50979 -1.102683,0.892304 -1.177449,0.850061 -0.22067,-0.124868 -0.15739,-0.802834 0.188561,-2.02041 0.263588,-0.927745 0.98406,-3.100374 1.205722,-3.635884 0.03084,-0.07441 -0.344065,-0.120993 -0.977614,-0.121163 -0.928898,-2.35e-4 -1.127244,-0.04503 -2.064564,-0.468846 -0.754533,-0.341017 -1.343709,-0.738 -2.163391,-1.457602 -1.291089,-1.13346 -1.745045,-1.381728 -2.52642,-1.381728 -0.518794,0 -0.540001,-0.01352 -0.302531,-0.176629 0.241993,-0.1674 0.23353,-0.176822 -0.161425,-0.180485 -0.907193,-0.0085 -1.128567,-0.366141 -0.405436,-0.65531 0.411081,-0.164366 0.414524,-0.17136 0.0896,-0.180814 -0.622509,-0.0181 -1.647949,-0.363512 -1.948977,-0.656515 l -0.298064,-0.29017 0.89781,-0.278651 0.89779,-0.278662 -0.665044,-0.0791 c -0.688525,-0.08197 -1.045192,-0.968786 -1.045192,-0.968786 0,0 -2.06285,-0.761411 -2.407758,-1.099435 l -0.302842,-0.296805 0.302842,-0.0741 c 0.166564,-0.04088 0.510044,-0.07644 0.763299,-0.07932 0.671665,-0.0063 0.272298,-0.173564 -0.985668,-0.409259 -1.165567,-0.218362 -1.528827,-0.425302 -1.262266,-0.719017 0.39095,-0.430785 2.136786,-0.697779 3.319666,-0.507703 l 0.441173,0.07091 -0.441431,-0.184412 c -0.617472,-0.257988 -1.612478,-0.413997 -2.640238,-0.413997 -0.649039,0 -1.023911,-0.07005 -1.451319,-0.270698 -0.316913,-0.148843 -0.581071,-0.324834 -0.586973,-0.390979 -0.0065,-0.06611 0.543932,-0.288519 1.221886,-0.494139 l 1.232651,-0.373838 -0.775527,-0.08038 c -0.746374,-0.07707 -1.623998,-0.434552 -1.623998,-0.661187 0,-0.262543 1.908552,-0.55612 3.552044,-0.546379 1.426409,0.0086 1.792736,0.05429 2.762694,0.345062 1.407338,0.422001 2.54876,0.94513 4.496393,2.060758 2.257693,1.293216 2.813166,1.52725 3.660142,1.541953 0.397959,0.0063 0.903531,-0.05685 1.123495,-0.142095 0.374767,-0.144797 0.408879,-0.212975 0.541885,-1.082773 0.192416,-1.258245 0.544344,-2.038096 1.545833,-3.425624 0.466078,-0.645709 0.917821,-1.369082 1.003859,-1.607512 0.224214,-0.621253 0.102669,-1.614269 -0.25352,-2.071755 -0.236703,-0.303978 -0.255538,-0.379948 -0.09417,-0.379948 0.287346,0 1.038207,0.633294 1.321779,1.11484 0.13242,0.224867 0.405052,0.465522 0.605847,0.534839 0.624713,0.215637 0.803935,0.738936 0.993083,2.899608 0.190853,2.18025 0.41705,3.075993 0.912848,3.614826 0.463019,0.503178 1.344223,0.789718 2.157735,0.701611 0.772397,-0.08369 1.269118,-0.30599 3.3584,-1.503477 4.206889,-2.411144 6.572282,-2.948432 9.904075,-2.249611 0.623314,0.130777 0.953778,0.25819 0.953778,0.367803 0,0.240154 -0.696134,0.536064 -1.454213,0.618156 -0.753621,0.08165 -0.843962,0.217404 -0.207481,0.311868 0.24378,0.0361 0.747871,0.185615 1.120199,0.332094 0.579704,0.22803 0.653059,0.292684 0.510564,0.449799 -0.271768,0.29972 -0.966562,0.507022 -1.707983,0.509598 -0.932962,0.0032 -2.175364,0.175374 -2.710398,0.375541 -0.410933,0.153731 -0.360245,0.163525 0.855114,0.163684 1.090232,2.46e-4 1.379239,0.04291 1.85107,0.273159 0.307507,0.150015 0.559122,0.324589 0.559122,0.387892 0,0.215125 -0.589659,0.463776 -1.422478,0.599823 -1.339948,0.218874 -1.500361,0.312081 -0.688485,0.400028 0.384726,0.04172 0.735879,0.109356 0.780327,0.150526 0.204057,0.18851 -1.326094,1.060203 -2.186484,1.245574 -0.478267,0.102948 -0.481748,0.107494 -0.100701,0.127401 0.885488,0.0461 0.920995,0.175705 0.143509,0.523822 -0.40425,0.181027 -1.004246,0.375127 -1.333337,0.431339 -0.32909,0.05621 -0.626071,0.127572 -0.659939,0.158627 -0.03388,0.03087 0.325529,0.152037 0.798676,0.269271 0.725936,0.179685 0.835451,0.240284 0.701359,0.388041 -0.290462,0.320054 -1.187429,0.658366 -1.931642,0.72862 l -0.734878,0.06941 0.511565,0.162003 c 0.641591,0.203106 0.672186,0.233043 0.468187,0.457836 -0.09861,0.108505 -0.387814,0.184923 -0.709418,0.18718 -0.506011,0.0054 -0.525616,0.01522 -0.287645,0.180484 0.238506,0.164865 0.221136,0.176724 -0.263116,0.178066 -0.676962,10e-4 -1.506661,0.441772 -2.239838,1.187501 -1.187395,1.207727 -3.178115,2.179611 -4.464492,2.179611 h -0.601255 l 0.0749,0.39098 c 0.736616,3.845005 1.016331,6.362664 0.725182,6.527232 -0.25059,0.141753 -0.644416,-0.07388 -1.044944,-0.572005 l -0.401011,-0.498673 v 1.832155 c 0,2.106941 -0.149492,2.666555 -0.712277,2.666555 -0.185717,0 -0.568326,0.05875 -0.818729,-0.39099 l -0.498503,-0.895356 c -1.395919,0.522644 -1.842883,0.980142 -2.575881,-0.320023 z"
       style="fill:#224433;stroke-width:0;stroke:none;stroke-miterlimit:4;stroke-dasharray:none;fill-opacity:1"
       id="Inner" />
  </g>
</svg>
